<?xml version="1.0" encoding="UTF-8" standalone="no"?>
<!-- Created with Inkscape (http://www.inkscape.org/) -->

<svg
   xmlns:dc="http://purl.org/dc/elements/1.1/"
   xmlns:cc="http://creativecommons.org/ns#"
   xmlns:rdf="http://www.w3.org/1999/02/22-rdf-syntax-ns#"
   xmlns:svg="http://www.w3.org/2000/svg"
   xmlns="http://www.w3.org/2000/svg"
   xmlns:sodipodi="http://sodipodi.sourceforge.net/DTD/sodipodi-0.dtd"
   xmlns:inkscape="http://www.inkscape.org/namespaces/inkscape"
   width="16"
   height="16"
   viewBox="0 0 16 16"
   id="svg5286"
   version="1.1"
   inkscape:version="0.91 r13725"
   sodipodi:docname="dialog-question-symbolic.svg">
  <defs
     id="defs5288" />
  <sodipodi:namedview
     id="base"
     pagecolor="#ffffff"
     bordercolor="#666666"
     borderopacity="1.0"
     inkscape:pageopacity="0.0"
     inkscape:pageshadow="2"
     inkscape:zoom="31.678384"
     inkscape:cx="7.9549832"
     inkscape:cy="7.7065811"
     inkscape:document-units="px"
     inkscape:current-layer="layer1"
     showgrid="true"
     units="px"
     inkscape:snap-bbox="true"
     inkscape:bbox-nodes="true"
     inkscape:snap-bbox-edge-midpoints="true"
     inkscape:window-width="1920"
     inkscape:window-height="999"
     inkscape:window-x="0"
     inkscape:window-y="27"
     inkscape:window-maximized="1">
    <inkscape:grid
       type="xygrid"
       id="grid5848" />
  </sodipodi:namedview>
  <metadata
     id="metadata5291">
    <rdf:RDF>
      <cc:Work
         rdf:about="">
        <dc:format>image/svg+xml</dc:format>
        <dc:type
           rdf:resource="http://purl.org/dc/dcmitype/StillImage" />
        <dc:title></dc:title>
      </cc:Work>
    </rdf:RDF>
  </metadata>
  <g
     inkscape:label="Layer 1"
     inkscape:groupmode="layer"
     id="layer1"
     transform="translate(0,-1036.3622)">
    <g
       id="dialog-question_16"
       inkscape:label="#g6679"
       transform="translate(-449,540.3622)">
      <rect
         y="496"
         x="449"
         height="16"
         width="16"
         id="rect4138-25-8-1-1-6-6"
         style="opacity:1;fill:none;fill-opacity:0.02898554;stroke:none;stroke-width:0.1;stroke-linecap:butt;stroke-linejoin:miter;stroke-miterlimit:4;stroke-dasharray:none;stroke-dashoffset:0;stroke-opacity:0.78431373" />
      <g
         transform="translate(449,496)"
         id="layer1-5"
         inkscape:label="Layer 1">
        <path
           style="color:#000000;display:inline;overflow:visible;visibility:visible;fill:#bebebe;fill-opacity:1;fill-rule:nonzero;stroke:none;stroke-width:0.99999994;stroke-linecap:round;stroke-linejoin:round;stroke-miterlimit:4;stroke-dasharray:none;stroke-dashoffset:0;stroke-opacity:1;marker:none;enable-background:accumulate"
           d="M 8 0 C 3.5858764 0 1.1842379e-15 3.5858758 0 8 C 0 12.414124 3.5858764 16.000001 8 16 C 12.414121 16 16.000004 12.414124 16 8 C 16 3.5858758 12.414121 5.9211895e-16 8 0 z M 8.0761719 3 C 8.2550069 3.0033519 8.4327725 3.0184309 8.6054688 3.0429688 C 9.833709 3.1560303 10.974524 3.9418304 10.994141 4.9453125 C 11.083979 5.9858275 10.232307 6.868692 9.3496094 7.5742188 C 8.5139242 8.198061 8.3170173 9.0791124 8.3417969 9.9863281 C 8.0568179 10.04039 7.6836016 10.054717 7.6660156 9.9394531 C 7.6440076 9.7951874 7.6757812 9.6729923 7.6757812 9.3164062 C 7.6735396 8.3797501 8.2350071 7.4990622 8.7578125 6.7226562 C 9.2806175 5.9462513 9.642856 5.1474576 9.3125 4.6210938 C 8.982144 4.0947287 8.1907884 3.6616351 7.3964844 3.8574219 C 7.3623734 3.8658295 7.1313312 3.9097556 6.9101562 4.0410156 C 6.6454695 4.1980935 6.4020554 4.5842831 6.4589844 4.7832031 C 6.5089462 4.9577803 6.5946714 5.1460709 6.5683594 5.3574219 C 6.5335814 5.6367541 6.3202691 5.9414062 5.859375 5.9414062 C 5.0713885 5.9414063 4.8550441 4.9757209 5.0898438 4.4375 C 5.4949297 3.4692093 6.8243268 2.9765366 8.0761719 3 z M 7.9785156 11.207031 C 8.6089945 11.197901 9.1000575 11.827984 8.8964844 12.375 C 8.700673 13.078441 7.5578506 13.232524 7.1503906 12.611328 C 6.6941321 12.048701 7.2190354 11.164741 7.9785156 11.207031 z "
           id="path2555-7-83" />
      </g>
    </g>
  </g>
</svg>
