<?xml version="1.0" encoding="UTF-8" standalone="no"?>
<!-- Created with Inkscape (http://www.inkscape.org/) -->

<svg
   xmlns:dc="http://purl.org/dc/elements/1.1/"
   xmlns:cc="http://creativecommons.org/ns#"
   xmlns:rdf="http://www.w3.org/1999/02/22-rdf-syntax-ns#"
   xmlns:svg="http://www.w3.org/2000/svg"
   xmlns="http://www.w3.org/2000/svg"
   xmlns:sodipodi="http://sodipodi.sourceforge.net/DTD/sodipodi-0.dtd"
   xmlns:inkscape="http://www.inkscape.org/namespaces/inkscape"
   width="16"
   height="16"
   viewBox="0 0 16 16"
   id="svg4693"
   version="1.1"
   inkscape:version="0.91 r13725"
   sodipodi:docname="dialog-information-symbolic.svg">
  <defs
     id="defs4695" />
  <sodipodi:namedview
     id="base"
     pagecolor="#ffffff"
     bordercolor="#666666"
     borderopacity="1.0"
     inkscape:pageopacity="0.0"
     inkscape:pageshadow="2"
     inkscape:zoom="31.678384"
     inkscape:cx="5.0914289"
     inkscape:cy="11.498502"
     inkscape:document-units="px"
     inkscape:current-layer="layer1"
     showgrid="true"
     units="px"
     inkscape:snap-bbox="true"
     inkscape:bbox-paths="true"
     inkscape:bbox-nodes="true"
     inkscape:window-width="1920"
     inkscape:window-height="999"
     inkscape:window-x="0"
     inkscape:window-y="27"
     inkscape:window-maximized="1">
    <inkscape:grid
       type="xygrid"
       id="grid5251" />
  </sodipodi:namedview>
  <metadata
     id="metadata4698">
    <rdf:RDF>
      <cc:Work
         rdf:about="">
        <dc:format>image/svg+xml</dc:format>
        <dc:type
           rdf:resource="http://purl.org/dc/dcmitype/StillImage" />
        <dc:title></dc:title>
      </cc:Work>
    </rdf:RDF>
  </metadata>
  <g
     inkscape:label="Layer 1"
     inkscape:groupmode="layer"
     id="layer1"
     transform="translate(0,-1036.3622)">
    <g
       inkscape:label="Layer 1"
       id="dialog-information_16"
       transform="translate(0,1036.3622)">
      <path
         style="color:#000000;display:inline;overflow:visible;visibility:visible;fill:#bebebe;fill-opacity:1;fill-rule:nonzero;stroke:none;stroke-width:0.99999994;stroke-linecap:round;stroke-linejoin:round;stroke-miterlimit:4;stroke-dasharray:none;stroke-dashoffset:0;stroke-opacity:1;marker:none;enable-background:accumulate"
         d="M 8 0 C 3.5858764 0 1.1842379e-15 3.5858758 0 8 C 0 12.414124 3.5858764 16.000001 8 16 C 12.414121 16 16.000004 12.414124 16 8 C 16 3.5858758 12.414121 5.9211895e-16 8 0 z M 9.0722656 2.4101562 C 9.4656362 2.3810454 9.8245714 2.6882643 9.8945312 3.0761719 C 10.099961 3.8182481 9.3452111 4.5987094 8.6132812 4.328125 C 7.7091842 3.9458638 8.1362323 2.3977468 9.0722656 2.4101562 z M 8.8046875 5.7910156 C 9.2574704 5.8103409 9.5123825 6.4370017 9.2988281 6.9765625 C 9.0197053 8.5273884 8.5460853 10.040527 8.3203125 11.601562 C 8.4829443 12.20769 9.1999277 11.434853 9.5351562 11.263672 C 9.783114 10.946715 9.859557 11.281244 9.9628906 11.511719 C 9.2925046 12.030324 8.636869 12.592939 7.8652344 12.953125 C 7.1472509 13.494153 6.4129883 12.812199 6.6933594 12.013672 C 6.9345657 10.566291 7.2677022 9.1352795 7.53125 7.6914062 C 7.6007648 6.9140788 6.6328777 7.7433435 6.3417969 7.9355469 C 6.113375 8.2521393 5.9920742 8.0325288 5.8808594 7.7597656 C 6.6567974 7.1346723 7.3953921 6.4419315 8.2949219 6 C 8.4802033 5.8460924 8.6537599 5.7845739 8.8046875 5.7910156 z "
         id="path2555-7-8" />
    </g>
  </g>
</svg>
